<mxfile host="drawio-plugin" modified="2023-02-20T17:20:50.133Z" agent="5.0 (Windows NT 6.2; Win64; x64) AppleWebKit/537.36 (KHTML, like Gecko) Chrome/98.0.4758.102 Safari/537.36" etag="tmwudAWclhPIPY_b6Tfv" version="20.5.3" type="embed"><diagram id="AUOyvND4ZTGH23xvvgch" name="Страница 1"><mxGraphModel dx="1423" dy="768" grid="1" gridSize="10" guides="1" tooltips="1" connect="1" arrows="1" fold="1" page="1" pageScale="1" pageWidth="827" pageHeight="1169" math="0" shadow="0"><root><mxCell id="0"/><mxCell id="1" parent="0"/><mxCell id="bcEEdu-v89f3usAvmzzI-1" value="collection" style="shape=table;startSize=30;container=1;collapsible=1;childLayout=tableLayout;fixedRows=1;rowLines=0;fontStyle=1;align=center;resizeLast=1;" parent="1" vertex="1"><mxGeometry x="90" y="120" width="150" height="150" as="geometry"/></mxCell><mxCell id="bcEEdu-v89f3usAvmzzI-2" value="" style="shape=tableRow;horizontal=0;startSize=0;swimlaneHead=0;swimlaneBody=0;fillColor=none;collapsible=0;dropTarget=0;points=[[0,0.5],[1,0.5]];portConstraint=eastwest;top=0;left=0;right=0;bottom=1;" parent="bcEEdu-v89f3usAvmzzI-1" vertex="1"><mxGeometry y="30" width="150" height="30" as="geometry"/></mxCell><mxCell id="bcEEdu-v89f3usAvmzzI-3" value="PK" style="shape=partialRectangle;connectable=0;fillColor=none;top=0;left=0;bottom=0;right=0;fontStyle=1;overflow=hidden;" parent="bcEEdu-v89f3usAvmzzI-2" vertex="1"><mxGeometry width="30" height="30" as="geometry"><mxRectangle width="30" height="30" as="alternateBounds"/></mxGeometry></mxCell><mxCell id="bcEEdu-v89f3usAvmzzI-4" value="collection_id" style="shape=partialRectangle;connectable=0;fillColor=none;top=0;left=0;bottom=0;right=0;align=left;spacingLeft=6;fontStyle=5;overflow=hidden;" parent="bcEEdu-v89f3usAvmzzI-2" vertex="1"><mxGeometry x="30" width="120" height="30" as="geometry"><mxRectangle width="120" height="30" as="alternateBounds"/></mxGeometry></mxCell><mxCell id="bcEEdu-v89f3usAvmzzI-343" value="" style="shape=tableRow;horizontal=0;startSize=0;swimlaneHead=0;swimlaneBody=0;fillColor=none;collapsible=0;dropTarget=0;points=[[0,0.5],[1,0.5]];portConstraint=eastwest;top=0;left=0;right=0;bottom=0;" parent="bcEEdu-v89f3usAvmzzI-1" vertex="1"><mxGeometry y="60" width="150" height="30" as="geometry"/></mxCell><mxCell id="bcEEdu-v89f3usAvmzzI-344" value="" style="shape=partialRectangle;connectable=0;fillColor=none;top=0;left=0;bottom=0;right=0;editable=1;overflow=hidden;" parent="bcEEdu-v89f3usAvmzzI-343" vertex="1"><mxGeometry width="30" height="30" as="geometry"><mxRectangle width="30" height="30" as="alternateBounds"/></mxGeometry></mxCell><mxCell id="bcEEdu-v89f3usAvmzzI-345" value="user_id" style="shape=partialRectangle;connectable=0;fillColor=none;top=0;left=0;bottom=0;right=0;align=left;spacingLeft=6;overflow=hidden;" parent="bcEEdu-v89f3usAvmzzI-343" vertex="1"><mxGeometry x="30" width="120" height="30" as="geometry"><mxRectangle width="120" height="30" as="alternateBounds"/></mxGeometry></mxCell><mxCell id="bcEEdu-v89f3usAvmzzI-5" value="" style="shape=tableRow;horizontal=0;startSize=0;swimlaneHead=0;swimlaneBody=0;fillColor=none;collapsible=0;dropTarget=0;points=[[0,0.5],[1,0.5]];portConstraint=eastwest;top=0;left=0;right=0;bottom=0;" parent="bcEEdu-v89f3usAvmzzI-1" vertex="1"><mxGeometry y="90" width="150" height="30" as="geometry"/></mxCell><mxCell id="bcEEdu-v89f3usAvmzzI-6" value="" style="shape=partialRectangle;connectable=0;fillColor=none;top=0;left=0;bottom=0;right=0;editable=1;overflow=hidden;" parent="bcEEdu-v89f3usAvmzzI-5" vertex="1"><mxGeometry width="30" height="30" as="geometry"><mxRectangle width="30" height="30" as="alternateBounds"/></mxGeometry></mxCell><mxCell id="bcEEdu-v89f3usAvmzzI-7" value="name" style="shape=partialRectangle;connectable=0;fillColor=none;top=0;left=0;bottom=0;right=0;align=left;spacingLeft=6;overflow=hidden;" parent="bcEEdu-v89f3usAvmzzI-5" vertex="1"><mxGeometry x="30" width="120" height="30" as="geometry"><mxRectangle width="120" height="30" as="alternateBounds"/></mxGeometry></mxCell><mxCell id="17" value="" style="shape=tableRow;horizontal=0;startSize=0;swimlaneHead=0;swimlaneBody=0;fillColor=none;collapsible=0;dropTarget=0;points=[[0,0.5],[1,0.5]];portConstraint=eastwest;top=0;left=0;right=0;bottom=0;" parent="bcEEdu-v89f3usAvmzzI-1" vertex="1"><mxGeometry y="120" width="150" height="30" as="geometry"/></mxCell><mxCell id="18" value="" style="shape=partialRectangle;connectable=0;fillColor=none;top=0;left=0;bottom=0;right=0;editable=1;overflow=hidden;" parent="17" vertex="1"><mxGeometry width="30" height="30" as="geometry"><mxRectangle width="30" height="30" as="alternateBounds"/></mxGeometry></mxCell><mxCell id="19" value="is_hidden" style="shape=partialRectangle;connectable=0;fillColor=none;top=0;left=0;bottom=0;right=0;align=left;spacingLeft=6;overflow=hidden;" parent="17" vertex="1"><mxGeometry x="30" width="120" height="30" as="geometry"><mxRectangle width="120" height="30" as="alternateBounds"/></mxGeometry></mxCell><mxCell id="bcEEdu-v89f3usAvmzzI-15" value="post" style="shape=table;startSize=30;container=1;collapsible=1;childLayout=tableLayout;fixedRows=1;rowLines=0;fontStyle=1;align=center;resizeLast=1;" parent="1" vertex="1"><mxGeometry x="688" y="525" width="140" height="240" as="geometry"/></mxCell><mxCell id="bcEEdu-v89f3usAvmzzI-16" value="" style="shape=tableRow;horizontal=0;startSize=0;swimlaneHead=0;swimlaneBody=0;fillColor=none;collapsible=0;dropTarget=0;points=[[0,0.5],[1,0.5]];portConstraint=eastwest;top=0;left=0;right=0;bottom=1;" parent="bcEEdu-v89f3usAvmzzI-15" vertex="1"><mxGeometry y="30" width="140" height="30" as="geometry"/></mxCell><mxCell id="bcEEdu-v89f3usAvmzzI-17" value="PK" style="shape=partialRectangle;connectable=0;fillColor=none;top=0;left=0;bottom=0;right=0;fontStyle=1;overflow=hidden;" parent="bcEEdu-v89f3usAvmzzI-16" vertex="1"><mxGeometry width="30" height="30" as="geometry"><mxRectangle width="30" height="30" as="alternateBounds"/></mxGeometry></mxCell><mxCell id="bcEEdu-v89f3usAvmzzI-18" value="post_id" style="shape=partialRectangle;connectable=0;fillColor=none;top=0;left=0;bottom=0;right=0;align=left;spacingLeft=6;fontStyle=5;overflow=hidden;" parent="bcEEdu-v89f3usAvmzzI-16" vertex="1"><mxGeometry x="30" width="110" height="30" as="geometry"><mxRectangle width="110" height="30" as="alternateBounds"/></mxGeometry></mxCell><mxCell id="bcEEdu-v89f3usAvmzzI-22" value="" style="shape=tableRow;horizontal=0;startSize=0;swimlaneHead=0;swimlaneBody=0;fillColor=none;collapsible=0;dropTarget=0;points=[[0,0.5],[1,0.5]];portConstraint=eastwest;top=0;left=0;right=0;bottom=0;" parent="bcEEdu-v89f3usAvmzzI-15" vertex="1"><mxGeometry y="60" width="140" height="30" as="geometry"/></mxCell><mxCell id="bcEEdu-v89f3usAvmzzI-23" value="" style="shape=partialRectangle;connectable=0;fillColor=none;top=0;left=0;bottom=0;right=0;editable=1;overflow=hidden;" parent="bcEEdu-v89f3usAvmzzI-22" vertex="1"><mxGeometry width="30" height="30" as="geometry"><mxRectangle width="30" height="30" as="alternateBounds"/></mxGeometry></mxCell><mxCell id="bcEEdu-v89f3usAvmzzI-24" value="name" style="shape=partialRectangle;connectable=0;fillColor=none;top=0;left=0;bottom=0;right=0;align=left;spacingLeft=6;overflow=hidden;" parent="bcEEdu-v89f3usAvmzzI-22" vertex="1"><mxGeometry x="30" width="110" height="30" as="geometry"><mxRectangle width="110" height="30" as="alternateBounds"/></mxGeometry></mxCell><mxCell id="bcEEdu-v89f3usAvmzzI-118" value="" style="shape=tableRow;horizontal=0;startSize=0;swimlaneHead=0;swimlaneBody=0;fillColor=none;collapsible=0;dropTarget=0;points=[[0,0.5],[1,0.5]];portConstraint=eastwest;top=0;left=0;right=0;bottom=0;" parent="bcEEdu-v89f3usAvmzzI-15" vertex="1"><mxGeometry y="90" width="140" height="30" as="geometry"/></mxCell><mxCell id="bcEEdu-v89f3usAvmzzI-119" value="" style="shape=partialRectangle;connectable=0;fillColor=none;top=0;left=0;bottom=0;right=0;editable=1;overflow=hidden;" parent="bcEEdu-v89f3usAvmzzI-118" vertex="1"><mxGeometry width="30" height="30" as="geometry"><mxRectangle width="30" height="30" as="alternateBounds"/></mxGeometry></mxCell><mxCell id="bcEEdu-v89f3usAvmzzI-120" value="description" style="shape=partialRectangle;connectable=0;fillColor=none;top=0;left=0;bottom=0;right=0;align=left;spacingLeft=6;overflow=hidden;" parent="bcEEdu-v89f3usAvmzzI-118" vertex="1"><mxGeometry x="30" width="110" height="30" as="geometry"><mxRectangle width="110" height="30" as="alternateBounds"/></mxGeometry></mxCell><mxCell id="bcEEdu-v89f3usAvmzzI-121" value="" style="shape=tableRow;horizontal=0;startSize=0;swimlaneHead=0;swimlaneBody=0;fillColor=none;collapsible=0;dropTarget=0;points=[[0,0.5],[1,0.5]];portConstraint=eastwest;top=0;left=0;right=0;bottom=0;" parent="bcEEdu-v89f3usAvmzzI-15" vertex="1"><mxGeometry y="120" width="140" height="30" as="geometry"/></mxCell><mxCell id="bcEEdu-v89f3usAvmzzI-122" value="" style="shape=partialRectangle;connectable=0;fillColor=none;top=0;left=0;bottom=0;right=0;editable=1;overflow=hidden;" parent="bcEEdu-v89f3usAvmzzI-121" vertex="1"><mxGeometry width="30" height="30" as="geometry"><mxRectangle width="30" height="30" as="alternateBounds"/></mxGeometry></mxCell><mxCell id="bcEEdu-v89f3usAvmzzI-123" value="dedication" style="shape=partialRectangle;connectable=0;fillColor=none;top=0;left=0;bottom=0;right=0;align=left;spacingLeft=6;overflow=hidden;" parent="bcEEdu-v89f3usAvmzzI-121" vertex="1"><mxGeometry x="30" width="110" height="30" as="geometry"><mxRectangle width="110" height="30" as="alternateBounds"/></mxGeometry></mxCell><mxCell id="20" value="" style="shape=tableRow;horizontal=0;startSize=0;swimlaneHead=0;swimlaneBody=0;fillColor=none;collapsible=0;dropTarget=0;points=[[0,0.5],[1,0.5]];portConstraint=eastwest;top=0;left=0;right=0;bottom=0;" parent="bcEEdu-v89f3usAvmzzI-15" vertex="1"><mxGeometry y="150" width="140" height="30" as="geometry"/></mxCell><mxCell id="21" value="" style="shape=partialRectangle;connectable=0;fillColor=none;top=0;left=0;bottom=0;right=0;editable=1;overflow=hidden;" parent="20" vertex="1"><mxGeometry width="30" height="30" as="geometry"><mxRectangle width="30" height="30" as="alternateBounds"/></mxGeometry></mxCell><mxCell id="22" value="is_hidden" style="shape=partialRectangle;connectable=0;fillColor=none;top=0;left=0;bottom=0;right=0;align=left;spacingLeft=6;overflow=hidden;" parent="20" vertex="1"><mxGeometry x="30" width="110" height="30" as="geometry"><mxRectangle width="110" height="30" as="alternateBounds"/></mxGeometry></mxCell><mxCell id="23" value="" style="shape=tableRow;horizontal=0;startSize=0;swimlaneHead=0;swimlaneBody=0;fillColor=none;collapsible=0;dropTarget=0;points=[[0,0.5],[1,0.5]];portConstraint=eastwest;top=0;left=0;right=0;bottom=0;" parent="bcEEdu-v89f3usAvmzzI-15" vertex="1"><mxGeometry y="180" width="140" height="30" as="geometry"/></mxCell><mxCell id="24" value="" style="shape=partialRectangle;connectable=0;fillColor=none;top=0;left=0;bottom=0;right=0;editable=1;overflow=hidden;" parent="23" vertex="1"><mxGeometry width="30" height="30" as="geometry"><mxRectangle width="30" height="30" as="alternateBounds"/></mxGeometry></mxCell><mxCell id="25" value="is_hidden_admin" style="shape=partialRectangle;connectable=0;fillColor=none;top=0;left=0;bottom=0;right=0;align=left;spacingLeft=6;overflow=hidden;" parent="23" vertex="1"><mxGeometry x="30" width="110" height="30" as="geometry"><mxRectangle width="110" height="30" as="alternateBounds"/></mxGeometry></mxCell><mxCell id="bcEEdu-v89f3usAvmzzI-124" value="" style="shape=tableRow;horizontal=0;startSize=0;swimlaneHead=0;swimlaneBody=0;fillColor=none;collapsible=0;dropTarget=0;points=[[0,0.5],[1,0.5]];portConstraint=eastwest;top=0;left=0;right=0;bottom=0;" parent="bcEEdu-v89f3usAvmzzI-15" vertex="1"><mxGeometry y="210" width="140" height="30" as="geometry"/></mxCell><mxCell id="bcEEdu-v89f3usAvmzzI-125" value="FK" style="shape=partialRectangle;connectable=0;fillColor=none;top=0;left=0;bottom=0;right=0;editable=1;overflow=hidden;" parent="bcEEdu-v89f3usAvmzzI-124" vertex="1"><mxGeometry width="30" height="30" as="geometry"><mxRectangle width="30" height="30" as="alternateBounds"/></mxGeometry></mxCell><mxCell id="bcEEdu-v89f3usAvmzzI-126" value="status_id" style="shape=partialRectangle;connectable=0;fillColor=none;top=0;left=0;bottom=0;right=0;align=left;spacingLeft=6;overflow=hidden;" parent="bcEEdu-v89f3usAvmzzI-124" vertex="1"><mxGeometry x="30" width="110" height="30" as="geometry"><mxRectangle width="110" height="30" as="alternateBounds"/></mxGeometry></mxCell><mxCell id="bcEEdu-v89f3usAvmzzI-45" value="fandom" style="shape=table;startSize=30;container=1;collapsible=1;childLayout=tableLayout;fixedRows=1;rowLines=0;fontStyle=1;align=center;resizeLast=1;" parent="1" vertex="1"><mxGeometry x="90" y="10" width="150" height="80" as="geometry"/></mxCell><mxCell id="bcEEdu-v89f3usAvmzzI-46" value="" style="shape=tableRow;horizontal=0;startSize=0;swimlaneHead=0;swimlaneBody=0;fillColor=none;collapsible=0;dropTarget=0;points=[[0,0.5],[1,0.5]];portConstraint=eastwest;top=0;left=0;right=0;bottom=1;" parent="bcEEdu-v89f3usAvmzzI-45" vertex="1"><mxGeometry y="30" width="150" height="20" as="geometry"/></mxCell><mxCell id="bcEEdu-v89f3usAvmzzI-47" value="PK" style="shape=partialRectangle;connectable=0;fillColor=none;top=0;left=0;bottom=0;right=0;fontStyle=1;overflow=hidden;" parent="bcEEdu-v89f3usAvmzzI-46" vertex="1"><mxGeometry width="30" height="20" as="geometry"><mxRectangle width="30" height="20" as="alternateBounds"/></mxGeometry></mxCell><mxCell id="bcEEdu-v89f3usAvmzzI-48" value="fandom_id" style="shape=partialRectangle;connectable=0;fillColor=none;top=0;left=0;bottom=0;right=0;align=left;spacingLeft=6;fontStyle=5;overflow=hidden;" parent="bcEEdu-v89f3usAvmzzI-46" vertex="1"><mxGeometry x="30" width="120" height="20" as="geometry"><mxRectangle width="120" height="20" as="alternateBounds"/></mxGeometry></mxCell><mxCell id="bcEEdu-v89f3usAvmzzI-49" value="" style="shape=tableRow;horizontal=0;startSize=0;swimlaneHead=0;swimlaneBody=0;fillColor=none;collapsible=0;dropTarget=0;points=[[0,0.5],[1,0.5]];portConstraint=eastwest;top=0;left=0;right=0;bottom=0;" parent="bcEEdu-v89f3usAvmzzI-45" vertex="1"><mxGeometry y="50" width="150" height="30" as="geometry"/></mxCell><mxCell id="bcEEdu-v89f3usAvmzzI-50" value="" style="shape=partialRectangle;connectable=0;fillColor=none;top=0;left=0;bottom=0;right=0;editable=1;overflow=hidden;" parent="bcEEdu-v89f3usAvmzzI-49" vertex="1"><mxGeometry width="30" height="30" as="geometry"><mxRectangle width="30" height="30" as="alternateBounds"/></mxGeometry></mxCell><mxCell id="bcEEdu-v89f3usAvmzzI-51" value="name" style="shape=partialRectangle;connectable=0;fillColor=none;top=0;left=0;bottom=0;right=0;align=left;spacingLeft=6;overflow=hidden;" parent="bcEEdu-v89f3usAvmzzI-49" vertex="1"><mxGeometry x="30" width="120" height="30" as="geometry"><mxRectangle width="120" height="30" as="alternateBounds"/></mxGeometry></mxCell><mxCell id="bcEEdu-v89f3usAvmzzI-58" value="collection_post" style="shape=table;startSize=30;container=1;collapsible=1;childLayout=tableLayout;fixedRows=1;rowLines=0;fontStyle=1;align=center;resizeLast=1;" parent="1" vertex="1"><mxGeometry x="330" y="120" width="180" height="120" as="geometry"/></mxCell><mxCell id="bcEEdu-v89f3usAvmzzI-59" value="" style="shape=tableRow;horizontal=0;startSize=0;swimlaneHead=0;swimlaneBody=0;fillColor=none;collapsible=0;dropTarget=0;points=[[0,0.5],[1,0.5]];portConstraint=eastwest;top=0;left=0;right=0;bottom=0;" parent="bcEEdu-v89f3usAvmzzI-58" vertex="1"><mxGeometry y="30" width="180" height="30" as="geometry"/></mxCell><mxCell id="bcEEdu-v89f3usAvmzzI-60" value="PK,FK1" style="shape=partialRectangle;connectable=0;fillColor=none;top=0;left=0;bottom=0;right=0;fontStyle=1;overflow=hidden;" parent="bcEEdu-v89f3usAvmzzI-59" vertex="1"><mxGeometry width="60" height="30" as="geometry"><mxRectangle width="60" height="30" as="alternateBounds"/></mxGeometry></mxCell><mxCell id="bcEEdu-v89f3usAvmzzI-61" value="collection_id" style="shape=partialRectangle;connectable=0;fillColor=none;top=0;left=0;bottom=0;right=0;align=left;spacingLeft=6;fontStyle=5;overflow=hidden;" parent="bcEEdu-v89f3usAvmzzI-59" vertex="1"><mxGeometry x="60" width="120" height="30" as="geometry"><mxRectangle width="120" height="30" as="alternateBounds"/></mxGeometry></mxCell><mxCell id="bcEEdu-v89f3usAvmzzI-62" value="" style="shape=tableRow;horizontal=0;startSize=0;swimlaneHead=0;swimlaneBody=0;fillColor=none;collapsible=0;dropTarget=0;points=[[0,0.5],[1,0.5]];portConstraint=eastwest;top=0;left=0;right=0;bottom=1;" parent="bcEEdu-v89f3usAvmzzI-58" vertex="1"><mxGeometry y="60" width="180" height="30" as="geometry"/></mxCell><mxCell id="bcEEdu-v89f3usAvmzzI-63" value="PK,FK2" style="shape=partialRectangle;connectable=0;fillColor=none;top=0;left=0;bottom=0;right=0;fontStyle=1;overflow=hidden;" parent="bcEEdu-v89f3usAvmzzI-62" vertex="1"><mxGeometry width="60" height="30" as="geometry"><mxRectangle width="60" height="30" as="alternateBounds"/></mxGeometry></mxCell><mxCell id="bcEEdu-v89f3usAvmzzI-64" value="post_id" style="shape=partialRectangle;connectable=0;fillColor=none;top=0;left=0;bottom=0;right=0;align=left;spacingLeft=6;fontStyle=5;overflow=hidden;" parent="bcEEdu-v89f3usAvmzzI-62" vertex="1"><mxGeometry x="60" width="120" height="30" as="geometry"><mxRectangle width="120" height="30" as="alternateBounds"/></mxGeometry></mxCell><mxCell id="bcEEdu-v89f3usAvmzzI-65" value="" style="shape=tableRow;horizontal=0;startSize=0;swimlaneHead=0;swimlaneBody=0;fillColor=none;collapsible=0;dropTarget=0;points=[[0,0.5],[1,0.5]];portConstraint=eastwest;top=0;left=0;right=0;bottom=0;" parent="bcEEdu-v89f3usAvmzzI-58" vertex="1"><mxGeometry y="90" width="180" height="30" as="geometry"/></mxCell><mxCell id="bcEEdu-v89f3usAvmzzI-66" value="Date" style="shape=partialRectangle;connectable=0;fillColor=none;top=0;left=0;bottom=0;right=0;editable=1;overflow=hidden;" parent="bcEEdu-v89f3usAvmzzI-65" vertex="1"><mxGeometry width="60" height="30" as="geometry"><mxRectangle width="60" height="30" as="alternateBounds"/></mxGeometry></mxCell><mxCell id="bcEEdu-v89f3usAvmzzI-67" value="date_of_add" style="shape=partialRectangle;connectable=0;fillColor=none;top=0;left=0;bottom=0;right=0;align=left;spacingLeft=6;overflow=hidden;" parent="bcEEdu-v89f3usAvmzzI-65" vertex="1"><mxGeometry x="60" width="120" height="30" as="geometry"><mxRectangle width="120" height="30" as="alternateBounds"/></mxGeometry></mxCell><mxCell id="bcEEdu-v89f3usAvmzzI-87" value="fandom_post" style="shape=table;startSize=30;container=1;collapsible=1;childLayout=tableLayout;fixedRows=1;rowLines=0;fontStyle=1;align=center;resizeLast=1;" parent="1" vertex="1"><mxGeometry x="330" y="10" width="180" height="90" as="geometry"/></mxCell><mxCell id="bcEEdu-v89f3usAvmzzI-88" value="" style="shape=tableRow;horizontal=0;startSize=0;swimlaneHead=0;swimlaneBody=0;fillColor=none;collapsible=0;dropTarget=0;points=[[0,0.5],[1,0.5]];portConstraint=eastwest;top=0;left=0;right=0;bottom=0;" parent="bcEEdu-v89f3usAvmzzI-87" vertex="1"><mxGeometry y="30" width="180" height="30" as="geometry"/></mxCell><mxCell id="bcEEdu-v89f3usAvmzzI-89" value="PK,FK1" style="shape=partialRectangle;connectable=0;fillColor=none;top=0;left=0;bottom=0;right=0;fontStyle=1;overflow=hidden;" parent="bcEEdu-v89f3usAvmzzI-88" vertex="1"><mxGeometry width="60" height="30" as="geometry"><mxRectangle width="60" height="30" as="alternateBounds"/></mxGeometry></mxCell><mxCell id="bcEEdu-v89f3usAvmzzI-90" value="fandom_id" style="shape=partialRectangle;connectable=0;fillColor=none;top=0;left=0;bottom=0;right=0;align=left;spacingLeft=6;fontStyle=5;overflow=hidden;" parent="bcEEdu-v89f3usAvmzzI-88" vertex="1"><mxGeometry x="60" width="120" height="30" as="geometry"><mxRectangle width="120" height="30" as="alternateBounds"/></mxGeometry></mxCell><mxCell id="bcEEdu-v89f3usAvmzzI-91" value="" style="shape=tableRow;horizontal=0;startSize=0;swimlaneHead=0;swimlaneBody=0;fillColor=none;collapsible=0;dropTarget=0;points=[[0,0.5],[1,0.5]];portConstraint=eastwest;top=0;left=0;right=0;bottom=1;" parent="bcEEdu-v89f3usAvmzzI-87" vertex="1"><mxGeometry y="60" width="180" height="30" as="geometry"/></mxCell><mxCell id="bcEEdu-v89f3usAvmzzI-92" value="PK,FK2" style="shape=partialRectangle;connectable=0;fillColor=none;top=0;left=0;bottom=0;right=0;fontStyle=1;overflow=hidden;" parent="bcEEdu-v89f3usAvmzzI-91" vertex="1"><mxGeometry width="60" height="30" as="geometry"><mxRectangle width="60" height="30" as="alternateBounds"/></mxGeometry></mxCell><mxCell id="bcEEdu-v89f3usAvmzzI-93" value="post_id" style="shape=partialRectangle;connectable=0;fillColor=none;top=0;left=0;bottom=0;right=0;align=left;spacingLeft=6;fontStyle=5;overflow=hidden;" parent="bcEEdu-v89f3usAvmzzI-91" vertex="1"><mxGeometry x="60" width="120" height="30" as="geometry"><mxRectangle width="120" height="30" as="alternateBounds"/></mxGeometry></mxCell><mxCell id="bcEEdu-v89f3usAvmzzI-100" value="" style="edgeStyle=entityRelationEdgeStyle;fontSize=12;html=1;endArrow=ERmany;startArrow=ERmany;rounded=0;entryX=0;entryY=0.5;entryDx=0;entryDy=0;exitX=1;exitY=0.5;exitDx=0;exitDy=0;" parent="1" source="bcEEdu-v89f3usAvmzzI-91" target="bcEEdu-v89f3usAvmzzI-16" edge="1"><mxGeometry width="100" height="100" relative="1" as="geometry"><mxPoint x="300" y="290" as="sourcePoint"/><mxPoint x="400" y="190" as="targetPoint"/></mxGeometry></mxCell><mxCell id="bcEEdu-v89f3usAvmzzI-101" value="" style="edgeStyle=entityRelationEdgeStyle;fontSize=12;html=1;endArrow=ERmany;startArrow=ERmany;rounded=0;entryX=0;entryY=0.5;entryDx=0;entryDy=0;exitX=1;exitY=0.5;exitDx=0;exitDy=0;" parent="1" source="bcEEdu-v89f3usAvmzzI-46" target="bcEEdu-v89f3usAvmzzI-88" edge="1"><mxGeometry width="100" height="100" relative="1" as="geometry"><mxPoint x="360" y="350" as="sourcePoint"/><mxPoint x="460" y="250" as="targetPoint"/></mxGeometry></mxCell><mxCell id="bcEEdu-v89f3usAvmzzI-103" value="" style="edgeStyle=entityRelationEdgeStyle;fontSize=12;html=1;endArrow=ERmany;startArrow=ERmany;rounded=0;exitX=1;exitY=0.5;exitDx=0;exitDy=0;entryX=0.003;entryY=0.671;entryDx=0;entryDy=0;entryPerimeter=0;" parent="1" source="bcEEdu-v89f3usAvmzzI-2" target="bcEEdu-v89f3usAvmzzI-59" edge="1"><mxGeometry width="100" height="100" relative="1" as="geometry"><mxPoint x="270" y="450" as="sourcePoint"/><mxPoint x="370" y="350" as="targetPoint"/></mxGeometry></mxCell><mxCell id="bcEEdu-v89f3usAvmzzI-104" value="" style="edgeStyle=entityRelationEdgeStyle;fontSize=12;html=1;endArrow=ERmany;startArrow=ERmany;rounded=0;entryX=0;entryY=0.5;entryDx=0;entryDy=0;exitX=1;exitY=0.5;exitDx=0;exitDy=0;" parent="1" source="bcEEdu-v89f3usAvmzzI-62" target="bcEEdu-v89f3usAvmzzI-16" edge="1"><mxGeometry x="1" y="-106" width="100" height="100" relative="1" as="geometry"><mxPoint x="480" y="360" as="sourcePoint"/><mxPoint x="580" y="260" as="targetPoint"/><mxPoint x="70" y="-26" as="offset"/></mxGeometry></mxCell><mxCell id="bcEEdu-v89f3usAvmzzI-105" value="character" style="shape=table;startSize=30;container=1;collapsible=1;childLayout=tableLayout;fixedRows=1;rowLines=0;fontStyle=1;align=center;resizeLast=1;" parent="1" vertex="1"><mxGeometry x="340" y="700" width="180" height="90" as="geometry"/></mxCell><mxCell id="bcEEdu-v89f3usAvmzzI-106" value="" style="shape=tableRow;horizontal=0;startSize=0;swimlaneHead=0;swimlaneBody=0;fillColor=none;collapsible=0;dropTarget=0;points=[[0,0.5],[1,0.5]];portConstraint=eastwest;top=0;left=0;right=0;bottom=1;" parent="bcEEdu-v89f3usAvmzzI-105" vertex="1"><mxGeometry y="30" width="180" height="30" as="geometry"/></mxCell><mxCell id="bcEEdu-v89f3usAvmzzI-107" value="PK" style="shape=partialRectangle;connectable=0;fillColor=none;top=0;left=0;bottom=0;right=0;fontStyle=1;overflow=hidden;" parent="bcEEdu-v89f3usAvmzzI-106" vertex="1"><mxGeometry width="30" height="30" as="geometry"><mxRectangle width="30" height="30" as="alternateBounds"/></mxGeometry></mxCell><mxCell id="bcEEdu-v89f3usAvmzzI-108" value="character_id" style="shape=partialRectangle;connectable=0;fillColor=none;top=0;left=0;bottom=0;right=0;align=left;spacingLeft=6;fontStyle=5;overflow=hidden;" parent="bcEEdu-v89f3usAvmzzI-106" vertex="1"><mxGeometry x="30" width="150" height="30" as="geometry"><mxRectangle width="150" height="30" as="alternateBounds"/></mxGeometry></mxCell><mxCell id="bcEEdu-v89f3usAvmzzI-109" value="" style="shape=tableRow;horizontal=0;startSize=0;swimlaneHead=0;swimlaneBody=0;fillColor=none;collapsible=0;dropTarget=0;points=[[0,0.5],[1,0.5]];portConstraint=eastwest;top=0;left=0;right=0;bottom=0;" parent="bcEEdu-v89f3usAvmzzI-105" vertex="1"><mxGeometry y="60" width="180" height="30" as="geometry"/></mxCell><mxCell id="bcEEdu-v89f3usAvmzzI-110" value="" style="shape=partialRectangle;connectable=0;fillColor=none;top=0;left=0;bottom=0;right=0;editable=1;overflow=hidden;" parent="bcEEdu-v89f3usAvmzzI-109" vertex="1"><mxGeometry width="30" height="30" as="geometry"><mxRectangle width="30" height="30" as="alternateBounds"/></mxGeometry></mxCell><mxCell id="bcEEdu-v89f3usAvmzzI-111" value="name" style="shape=partialRectangle;connectable=0;fillColor=none;top=0;left=0;bottom=0;right=0;align=left;spacingLeft=6;overflow=hidden;" parent="bcEEdu-v89f3usAvmzzI-109" vertex="1"><mxGeometry x="30" width="150" height="30" as="geometry"><mxRectangle width="150" height="30" as="alternateBounds"/></mxGeometry></mxCell><mxCell id="bcEEdu-v89f3usAvmzzI-127" value="character_paring" style="shape=table;startSize=30;container=1;collapsible=1;childLayout=tableLayout;fixedRows=1;rowLines=0;fontStyle=1;align=center;resizeLast=1;" parent="1" vertex="1"><mxGeometry x="80" y="700" width="180" height="90" as="geometry"/></mxCell><mxCell id="bcEEdu-v89f3usAvmzzI-128" value="" style="shape=tableRow;horizontal=0;startSize=0;swimlaneHead=0;swimlaneBody=0;fillColor=none;collapsible=0;dropTarget=0;points=[[0,0.5],[1,0.5]];portConstraint=eastwest;top=0;left=0;right=0;bottom=0;" parent="bcEEdu-v89f3usAvmzzI-127" vertex="1"><mxGeometry y="30" width="180" height="30" as="geometry"/></mxCell><mxCell id="bcEEdu-v89f3usAvmzzI-129" value="PK,FK1" style="shape=partialRectangle;connectable=0;fillColor=none;top=0;left=0;bottom=0;right=0;fontStyle=1;overflow=hidden;" parent="bcEEdu-v89f3usAvmzzI-128" vertex="1"><mxGeometry width="60" height="30" as="geometry"><mxRectangle width="60" height="30" as="alternateBounds"/></mxGeometry></mxCell><mxCell id="bcEEdu-v89f3usAvmzzI-130" value="character_id" style="shape=partialRectangle;connectable=0;fillColor=none;top=0;left=0;bottom=0;right=0;align=left;spacingLeft=6;fontStyle=5;overflow=hidden;" parent="bcEEdu-v89f3usAvmzzI-128" vertex="1"><mxGeometry x="60" width="120" height="30" as="geometry"><mxRectangle width="120" height="30" as="alternateBounds"/></mxGeometry></mxCell><mxCell id="bcEEdu-v89f3usAvmzzI-131" value="" style="shape=tableRow;horizontal=0;startSize=0;swimlaneHead=0;swimlaneBody=0;fillColor=none;collapsible=0;dropTarget=0;points=[[0,0.5],[1,0.5]];portConstraint=eastwest;top=0;left=0;right=0;bottom=1;" parent="bcEEdu-v89f3usAvmzzI-127" vertex="1"><mxGeometry y="60" width="180" height="30" as="geometry"/></mxCell><mxCell id="bcEEdu-v89f3usAvmzzI-132" value="PK,FK2" style="shape=partialRectangle;connectable=0;fillColor=none;top=0;left=0;bottom=0;right=0;fontStyle=1;overflow=hidden;" parent="bcEEdu-v89f3usAvmzzI-131" vertex="1"><mxGeometry width="60" height="30" as="geometry"><mxRectangle width="60" height="30" as="alternateBounds"/></mxGeometry></mxCell><mxCell id="bcEEdu-v89f3usAvmzzI-133" value="paring_id" style="shape=partialRectangle;connectable=0;fillColor=none;top=0;left=0;bottom=0;right=0;align=left;spacingLeft=6;fontStyle=5;overflow=hidden;" parent="bcEEdu-v89f3usAvmzzI-131" vertex="1"><mxGeometry x="60" width="120" height="30" as="geometry"><mxRectangle width="120" height="30" as="alternateBounds"/></mxGeometry></mxCell><mxCell id="bcEEdu-v89f3usAvmzzI-140" value="paring" style="shape=table;startSize=30;container=1;collapsible=1;childLayout=tableLayout;fixedRows=1;rowLines=0;fontStyle=1;align=center;resizeLast=1;" parent="1" vertex="1"><mxGeometry x="80" y="390" width="180" height="90" as="geometry"/></mxCell><mxCell id="bcEEdu-v89f3usAvmzzI-141" value="" style="shape=tableRow;horizontal=0;startSize=0;swimlaneHead=0;swimlaneBody=0;fillColor=none;collapsible=0;dropTarget=0;points=[[0,0.5],[1,0.5]];portConstraint=eastwest;top=0;left=0;right=0;bottom=1;" parent="bcEEdu-v89f3usAvmzzI-140" vertex="1"><mxGeometry y="30" width="180" height="30" as="geometry"/></mxCell><mxCell id="bcEEdu-v89f3usAvmzzI-142" value="PK" style="shape=partialRectangle;connectable=0;fillColor=none;top=0;left=0;bottom=0;right=0;fontStyle=1;overflow=hidden;" parent="bcEEdu-v89f3usAvmzzI-141" vertex="1"><mxGeometry width="30" height="30" as="geometry"><mxRectangle width="30" height="30" as="alternateBounds"/></mxGeometry></mxCell><mxCell id="bcEEdu-v89f3usAvmzzI-143" value="paring_id" style="shape=partialRectangle;connectable=0;fillColor=none;top=0;left=0;bottom=0;right=0;align=left;spacingLeft=6;fontStyle=5;overflow=hidden;" parent="bcEEdu-v89f3usAvmzzI-141" vertex="1"><mxGeometry x="30" width="150" height="30" as="geometry"><mxRectangle width="150" height="30" as="alternateBounds"/></mxGeometry></mxCell><mxCell id="bcEEdu-v89f3usAvmzzI-144" value="" style="shape=tableRow;horizontal=0;startSize=0;swimlaneHead=0;swimlaneBody=0;fillColor=none;collapsible=0;dropTarget=0;points=[[0,0.5],[1,0.5]];portConstraint=eastwest;top=0;left=0;right=0;bottom=0;" parent="bcEEdu-v89f3usAvmzzI-140" vertex="1"><mxGeometry y="60" width="180" height="30" as="geometry"/></mxCell><mxCell id="bcEEdu-v89f3usAvmzzI-145" value="" style="shape=partialRectangle;connectable=0;fillColor=none;top=0;left=0;bottom=0;right=0;editable=1;overflow=hidden;" parent="bcEEdu-v89f3usAvmzzI-144" vertex="1"><mxGeometry width="30" height="30" as="geometry"><mxRectangle width="30" height="30" as="alternateBounds"/></mxGeometry></mxCell><mxCell id="bcEEdu-v89f3usAvmzzI-146" value="name" style="shape=partialRectangle;connectable=0;fillColor=none;top=0;left=0;bottom=0;right=0;align=left;spacingLeft=6;overflow=hidden;" parent="bcEEdu-v89f3usAvmzzI-144" vertex="1"><mxGeometry x="30" width="150" height="30" as="geometry"><mxRectangle width="150" height="30" as="alternateBounds"/></mxGeometry></mxCell><mxCell id="bcEEdu-v89f3usAvmzzI-153" value="paring_post" style="shape=table;startSize=30;container=1;collapsible=1;childLayout=tableLayout;fixedRows=1;rowLines=0;fontStyle=1;align=center;resizeLast=1;" parent="1" vertex="1"><mxGeometry x="324" y="280" width="180" height="90" as="geometry"/></mxCell><mxCell id="bcEEdu-v89f3usAvmzzI-154" value="" style="shape=tableRow;horizontal=0;startSize=0;swimlaneHead=0;swimlaneBody=0;fillColor=none;collapsible=0;dropTarget=0;points=[[0,0.5],[1,0.5]];portConstraint=eastwest;top=0;left=0;right=0;bottom=0;" parent="bcEEdu-v89f3usAvmzzI-153" vertex="1"><mxGeometry y="30" width="180" height="30" as="geometry"/></mxCell><mxCell id="bcEEdu-v89f3usAvmzzI-155" value="PK,FK1" style="shape=partialRectangle;connectable=0;fillColor=none;top=0;left=0;bottom=0;right=0;fontStyle=1;overflow=hidden;" parent="bcEEdu-v89f3usAvmzzI-154" vertex="1"><mxGeometry width="60" height="30" as="geometry"><mxRectangle width="60" height="30" as="alternateBounds"/></mxGeometry></mxCell><mxCell id="bcEEdu-v89f3usAvmzzI-156" value="post_id" style="shape=partialRectangle;connectable=0;fillColor=none;top=0;left=0;bottom=0;right=0;align=left;spacingLeft=6;fontStyle=5;overflow=hidden;" parent="bcEEdu-v89f3usAvmzzI-154" vertex="1"><mxGeometry x="60" width="120" height="30" as="geometry"><mxRectangle width="120" height="30" as="alternateBounds"/></mxGeometry></mxCell><mxCell id="bcEEdu-v89f3usAvmzzI-157" value="" style="shape=tableRow;horizontal=0;startSize=0;swimlaneHead=0;swimlaneBody=0;fillColor=none;collapsible=0;dropTarget=0;points=[[0,0.5],[1,0.5]];portConstraint=eastwest;top=0;left=0;right=0;bottom=1;" parent="bcEEdu-v89f3usAvmzzI-153" vertex="1"><mxGeometry y="60" width="180" height="30" as="geometry"/></mxCell><mxCell id="bcEEdu-v89f3usAvmzzI-158" value="PK,FK2" style="shape=partialRectangle;connectable=0;fillColor=none;top=0;left=0;bottom=0;right=0;fontStyle=1;overflow=hidden;" parent="bcEEdu-v89f3usAvmzzI-157" vertex="1"><mxGeometry width="60" height="30" as="geometry"><mxRectangle width="60" height="30" as="alternateBounds"/></mxGeometry></mxCell><mxCell id="bcEEdu-v89f3usAvmzzI-159" value="paring_id" style="shape=partialRectangle;connectable=0;fillColor=none;top=0;left=0;bottom=0;right=0;align=left;spacingLeft=6;fontStyle=5;overflow=hidden;" parent="bcEEdu-v89f3usAvmzzI-157" vertex="1"><mxGeometry x="60" width="120" height="30" as="geometry"><mxRectangle width="120" height="30" as="alternateBounds"/></mxGeometry></mxCell><mxCell id="bcEEdu-v89f3usAvmzzI-166" value="character_post" style="shape=table;startSize=30;container=1;collapsible=1;childLayout=tableLayout;fixedRows=1;rowLines=0;fontStyle=1;align=center;resizeLast=1;" parent="1" vertex="1"><mxGeometry x="340" y="505" width="180" height="90" as="geometry"/></mxCell><mxCell id="bcEEdu-v89f3usAvmzzI-167" value="" style="shape=tableRow;horizontal=0;startSize=0;swimlaneHead=0;swimlaneBody=0;fillColor=none;collapsible=0;dropTarget=0;points=[[0,0.5],[1,0.5]];portConstraint=eastwest;top=0;left=0;right=0;bottom=0;" parent="bcEEdu-v89f3usAvmzzI-166" vertex="1"><mxGeometry y="30" width="180" height="30" as="geometry"/></mxCell><mxCell id="bcEEdu-v89f3usAvmzzI-168" value="PK,FK1" style="shape=partialRectangle;connectable=0;fillColor=none;top=0;left=0;bottom=0;right=0;fontStyle=1;overflow=hidden;" parent="bcEEdu-v89f3usAvmzzI-167" vertex="1"><mxGeometry width="60" height="30" as="geometry"><mxRectangle width="60" height="30" as="alternateBounds"/></mxGeometry></mxCell><mxCell id="bcEEdu-v89f3usAvmzzI-169" value="post_id" style="shape=partialRectangle;connectable=0;fillColor=none;top=0;left=0;bottom=0;right=0;align=left;spacingLeft=6;fontStyle=5;overflow=hidden;" parent="bcEEdu-v89f3usAvmzzI-167" vertex="1"><mxGeometry x="60" width="120" height="30" as="geometry"><mxRectangle width="120" height="30" as="alternateBounds"/></mxGeometry></mxCell><mxCell id="bcEEdu-v89f3usAvmzzI-170" value="" style="shape=tableRow;horizontal=0;startSize=0;swimlaneHead=0;swimlaneBody=0;fillColor=none;collapsible=0;dropTarget=0;points=[[0,0.5],[1,0.5]];portConstraint=eastwest;top=0;left=0;right=0;bottom=1;" parent="bcEEdu-v89f3usAvmzzI-166" vertex="1"><mxGeometry y="60" width="180" height="30" as="geometry"/></mxCell><mxCell id="bcEEdu-v89f3usAvmzzI-171" value="PK,FK2" style="shape=partialRectangle;connectable=0;fillColor=none;top=0;left=0;bottom=0;right=0;fontStyle=1;overflow=hidden;" parent="bcEEdu-v89f3usAvmzzI-170" vertex="1"><mxGeometry width="60" height="30" as="geometry"><mxRectangle width="60" height="30" as="alternateBounds"/></mxGeometry></mxCell><mxCell id="bcEEdu-v89f3usAvmzzI-172" value="character_id" style="shape=partialRectangle;connectable=0;fillColor=none;top=0;left=0;bottom=0;right=0;align=left;spacingLeft=6;fontStyle=5;overflow=hidden;" parent="bcEEdu-v89f3usAvmzzI-170" vertex="1"><mxGeometry x="60" width="120" height="30" as="geometry"><mxRectangle width="120" height="30" as="alternateBounds"/></mxGeometry></mxCell><mxCell id="bcEEdu-v89f3usAvmzzI-179" value="" style="edgeStyle=entityRelationEdgeStyle;fontSize=12;html=1;endArrow=ERmany;startArrow=ERmany;rounded=0;entryX=0;entryY=0.5;entryDx=0;entryDy=0;exitX=1;exitY=0.5;exitDx=0;exitDy=0;" parent="1" source="bcEEdu-v89f3usAvmzzI-167" target="bcEEdu-v89f3usAvmzzI-16" edge="1"><mxGeometry width="100" height="100" relative="1" as="geometry"><mxPoint x="530" y="470" as="sourcePoint"/><mxPoint x="630" y="360" as="targetPoint"/></mxGeometry></mxCell><mxCell id="bcEEdu-v89f3usAvmzzI-180" value="" style="edgeStyle=entityRelationEdgeStyle;fontSize=12;html=1;endArrow=ERmany;startArrow=ERmany;rounded=0;entryX=0;entryY=0.5;entryDx=0;entryDy=0;exitX=1;exitY=0.5;exitDx=0;exitDy=0;" parent="1" source="bcEEdu-v89f3usAvmzzI-154" target="bcEEdu-v89f3usAvmzzI-16" edge="1"><mxGeometry width="100" height="100" relative="1" as="geometry"><mxPoint x="540" y="470" as="sourcePoint"/><mxPoint x="640" y="370" as="targetPoint"/></mxGeometry></mxCell><mxCell id="bcEEdu-v89f3usAvmzzI-181" value="" style="edgeStyle=entityRelationEdgeStyle;fontSize=12;html=1;endArrow=ERmany;startArrow=ERmany;rounded=0;entryX=1;entryY=0.5;entryDx=0;entryDy=0;exitX=1;exitY=0.5;exitDx=0;exitDy=0;" parent="1" source="bcEEdu-v89f3usAvmzzI-106" target="bcEEdu-v89f3usAvmzzI-170" edge="1"><mxGeometry width="100" height="100" relative="1" as="geometry"><mxPoint x="400" y="520" as="sourcePoint"/><mxPoint x="500" y="420" as="targetPoint"/></mxGeometry></mxCell><mxCell id="bcEEdu-v89f3usAvmzzI-182" value="" style="edgeStyle=entityRelationEdgeStyle;fontSize=12;html=1;endArrow=ERmany;startArrow=ERmany;rounded=0;entryX=0;entryY=0.5;entryDx=0;entryDy=0;exitX=1;exitY=0.5;exitDx=0;exitDy=0;" parent="1" source="bcEEdu-v89f3usAvmzzI-141" target="bcEEdu-v89f3usAvmzzI-157" edge="1"><mxGeometry x="-1" y="289" width="100" height="100" relative="1" as="geometry"><mxPoint x="270" y="565" as="sourcePoint"/><mxPoint x="490" y="470" as="targetPoint"/><mxPoint x="-280" y="219" as="offset"/></mxGeometry></mxCell><mxCell id="bcEEdu-v89f3usAvmzzI-186" value="" style="edgeStyle=entityRelationEdgeStyle;fontSize=12;html=1;endArrow=ERmany;startArrow=ERmany;rounded=0;entryX=0;entryY=0.5;entryDx=0;entryDy=0;exitX=1;exitY=0.5;exitDx=0;exitDy=0;" parent="1" source="bcEEdu-v89f3usAvmzzI-128" target="bcEEdu-v89f3usAvmzzI-106" edge="1"><mxGeometry width="100" height="100" relative="1" as="geometry"><mxPoint x="380" y="650" as="sourcePoint"/><mxPoint x="480" y="550" as="targetPoint"/></mxGeometry></mxCell><mxCell id="bcEEdu-v89f3usAvmzzI-187" value="" style="edgeStyle=entityRelationEdgeStyle;fontSize=12;html=1;endArrow=ERmany;startArrow=ERmany;rounded=0;entryX=1;entryY=0.5;entryDx=0;entryDy=0;exitX=1;exitY=0.5;exitDx=0;exitDy=0;" parent="1" source="bcEEdu-v89f3usAvmzzI-128" target="bcEEdu-v89f3usAvmzzI-141" edge="1"><mxGeometry width="100" height="100" relative="1" as="geometry"><mxPoint x="280" y="780" as="sourcePoint"/><mxPoint x="230" y="620" as="targetPoint"/></mxGeometry></mxCell><mxCell id="bcEEdu-v89f3usAvmzzI-188" value="tag" style="shape=table;startSize=30;container=1;collapsible=1;childLayout=tableLayout;fixedRows=1;rowLines=0;fontStyle=1;align=center;resizeLast=1;" parent="1" vertex="1"><mxGeometry x="1590" y="765" width="180" height="120" as="geometry"/></mxCell><mxCell id="bcEEdu-v89f3usAvmzzI-189" value="" style="shape=tableRow;horizontal=0;startSize=0;swimlaneHead=0;swimlaneBody=0;fillColor=none;collapsible=0;dropTarget=0;points=[[0,0.5],[1,0.5]];portConstraint=eastwest;top=0;left=0;right=0;bottom=1;" parent="bcEEdu-v89f3usAvmzzI-188" vertex="1"><mxGeometry y="30" width="180" height="30" as="geometry"/></mxCell><mxCell id="bcEEdu-v89f3usAvmzzI-190" value="PK" style="shape=partialRectangle;connectable=0;fillColor=none;top=0;left=0;bottom=0;right=0;fontStyle=1;overflow=hidden;" parent="bcEEdu-v89f3usAvmzzI-189" vertex="1"><mxGeometry width="30" height="30" as="geometry"><mxRectangle width="30" height="30" as="alternateBounds"/></mxGeometry></mxCell><mxCell id="bcEEdu-v89f3usAvmzzI-191" value="tag_id" style="shape=partialRectangle;connectable=0;fillColor=none;top=0;left=0;bottom=0;right=0;align=left;spacingLeft=6;fontStyle=5;overflow=hidden;" parent="bcEEdu-v89f3usAvmzzI-189" vertex="1"><mxGeometry x="30" width="150" height="30" as="geometry"><mxRectangle width="150" height="30" as="alternateBounds"/></mxGeometry></mxCell><mxCell id="bcEEdu-v89f3usAvmzzI-192" value="" style="shape=tableRow;horizontal=0;startSize=0;swimlaneHead=0;swimlaneBody=0;fillColor=none;collapsible=0;dropTarget=0;points=[[0,0.5],[1,0.5]];portConstraint=eastwest;top=0;left=0;right=0;bottom=0;" parent="bcEEdu-v89f3usAvmzzI-188" vertex="1"><mxGeometry y="60" width="180" height="30" as="geometry"/></mxCell><mxCell id="bcEEdu-v89f3usAvmzzI-193" value="" style="shape=partialRectangle;connectable=0;fillColor=none;top=0;left=0;bottom=0;right=0;editable=1;overflow=hidden;" parent="bcEEdu-v89f3usAvmzzI-192" vertex="1"><mxGeometry width="30" height="30" as="geometry"><mxRectangle width="30" height="30" as="alternateBounds"/></mxGeometry></mxCell><mxCell id="bcEEdu-v89f3usAvmzzI-194" value="name" style="shape=partialRectangle;connectable=0;fillColor=none;top=0;left=0;bottom=0;right=0;align=left;spacingLeft=6;overflow=hidden;" parent="bcEEdu-v89f3usAvmzzI-192" vertex="1"><mxGeometry x="30" width="150" height="30" as="geometry"><mxRectangle width="150" height="30" as="alternateBounds"/></mxGeometry></mxCell><mxCell id="bcEEdu-v89f3usAvmzzI-195" value="" style="shape=tableRow;horizontal=0;startSize=0;swimlaneHead=0;swimlaneBody=0;fillColor=none;collapsible=0;dropTarget=0;points=[[0,0.5],[1,0.5]];portConstraint=eastwest;top=0;left=0;right=0;bottom=0;" parent="bcEEdu-v89f3usAvmzzI-188" vertex="1"><mxGeometry y="90" width="180" height="30" as="geometry"/></mxCell><mxCell id="bcEEdu-v89f3usAvmzzI-196" value="" style="shape=partialRectangle;connectable=0;fillColor=none;top=0;left=0;bottom=0;right=0;editable=1;overflow=hidden;" parent="bcEEdu-v89f3usAvmzzI-195" vertex="1"><mxGeometry width="30" height="30" as="geometry"><mxRectangle width="30" height="30" as="alternateBounds"/></mxGeometry></mxCell><mxCell id="bcEEdu-v89f3usAvmzzI-197" value="age_id" style="shape=partialRectangle;connectable=0;fillColor=none;top=0;left=0;bottom=0;right=0;align=left;spacingLeft=6;overflow=hidden;" parent="bcEEdu-v89f3usAvmzzI-195" vertex="1"><mxGeometry x="30" width="150" height="30" as="geometry"><mxRectangle width="150" height="30" as="alternateBounds"/></mxGeometry></mxCell><mxCell id="bcEEdu-v89f3usAvmzzI-201" value="post_tag" style="shape=table;startSize=30;container=1;collapsible=1;childLayout=tableLayout;fixedRows=1;rowLines=0;fontStyle=1;align=center;resizeLast=1;" parent="1" vertex="1"><mxGeometry x="1260" y="800" width="180" height="90" as="geometry"/></mxCell><mxCell id="bcEEdu-v89f3usAvmzzI-202" value="" style="shape=tableRow;horizontal=0;startSize=0;swimlaneHead=0;swimlaneBody=0;fillColor=none;collapsible=0;dropTarget=0;points=[[0,0.5],[1,0.5]];portConstraint=eastwest;top=0;left=0;right=0;bottom=0;" parent="bcEEdu-v89f3usAvmzzI-201" vertex="1"><mxGeometry y="30" width="180" height="30" as="geometry"/></mxCell><mxCell id="bcEEdu-v89f3usAvmzzI-203" value="PK,FK1" style="shape=partialRectangle;connectable=0;fillColor=none;top=0;left=0;bottom=0;right=0;fontStyle=1;overflow=hidden;" parent="bcEEdu-v89f3usAvmzzI-202" vertex="1"><mxGeometry width="60" height="30" as="geometry"><mxRectangle width="60" height="30" as="alternateBounds"/></mxGeometry></mxCell><mxCell id="bcEEdu-v89f3usAvmzzI-204" value="post_id" style="shape=partialRectangle;connectable=0;fillColor=none;top=0;left=0;bottom=0;right=0;align=left;spacingLeft=6;fontStyle=5;overflow=hidden;" parent="bcEEdu-v89f3usAvmzzI-202" vertex="1"><mxGeometry x="60" width="120" height="30" as="geometry"><mxRectangle width="120" height="30" as="alternateBounds"/></mxGeometry></mxCell><mxCell id="bcEEdu-v89f3usAvmzzI-205" value="" style="shape=tableRow;horizontal=0;startSize=0;swimlaneHead=0;swimlaneBody=0;fillColor=none;collapsible=0;dropTarget=0;points=[[0,0.5],[1,0.5]];portConstraint=eastwest;top=0;left=0;right=0;bottom=1;" parent="bcEEdu-v89f3usAvmzzI-201" vertex="1"><mxGeometry y="60" width="180" height="30" as="geometry"/></mxCell><mxCell id="bcEEdu-v89f3usAvmzzI-206" value="PK,FK2" style="shape=partialRectangle;connectable=0;fillColor=none;top=0;left=0;bottom=0;right=0;fontStyle=1;overflow=hidden;" parent="bcEEdu-v89f3usAvmzzI-205" vertex="1"><mxGeometry width="60" height="30" as="geometry"><mxRectangle width="60" height="30" as="alternateBounds"/></mxGeometry></mxCell><mxCell id="bcEEdu-v89f3usAvmzzI-207" value="tag_id" style="shape=partialRectangle;connectable=0;fillColor=none;top=0;left=0;bottom=0;right=0;align=left;spacingLeft=6;fontStyle=5;overflow=hidden;" parent="bcEEdu-v89f3usAvmzzI-205" vertex="1"><mxGeometry x="60" width="120" height="30" as="geometry"><mxRectangle width="120" height="30" as="alternateBounds"/></mxGeometry></mxCell><mxCell id="bcEEdu-v89f3usAvmzzI-214" value="" style="edgeStyle=entityRelationEdgeStyle;fontSize=12;html=1;endArrow=ERmany;startArrow=ERmany;rounded=0;entryX=0;entryY=0.5;entryDx=0;entryDy=0;exitX=1;exitY=0.5;exitDx=0;exitDy=0;" parent="1" source="bcEEdu-v89f3usAvmzzI-205" target="bcEEdu-v89f3usAvmzzI-189" edge="1"><mxGeometry width="100" height="100" relative="1" as="geometry"><mxPoint x="930" y="620" as="sourcePoint"/><mxPoint x="1030" y="520" as="targetPoint"/></mxGeometry></mxCell><mxCell id="bcEEdu-v89f3usAvmzzI-215" value="" style="edgeStyle=entityRelationEdgeStyle;fontSize=12;html=1;endArrow=ERmany;startArrow=ERmany;rounded=0;entryX=0;entryY=0.5;entryDx=0;entryDy=0;exitX=1;exitY=0.5;exitDx=0;exitDy=0;" parent="1" source="bcEEdu-v89f3usAvmzzI-16" target="bcEEdu-v89f3usAvmzzI-202" edge="1"><mxGeometry width="100" height="100" relative="1" as="geometry"><mxPoint x="880" y="350" as="sourcePoint"/><mxPoint x="980" y="250" as="targetPoint"/></mxGeometry></mxCell><mxCell id="bcEEdu-v89f3usAvmzzI-261" value="chapter" style="shape=table;startSize=30;container=1;collapsible=1;childLayout=tableLayout;fixedRows=1;rowLines=0;fontStyle=1;align=center;resizeLast=1;" parent="1" vertex="1"><mxGeometry x="1170" y="10" width="180" height="240" as="geometry"/></mxCell><mxCell id="bcEEdu-v89f3usAvmzzI-262" value="" style="shape=tableRow;horizontal=0;startSize=0;swimlaneHead=0;swimlaneBody=0;fillColor=none;collapsible=0;dropTarget=0;points=[[0,0.5],[1,0.5]];portConstraint=eastwest;top=0;left=0;right=0;bottom=1;" parent="bcEEdu-v89f3usAvmzzI-261" vertex="1"><mxGeometry y="30" width="180" height="30" as="geometry"/></mxCell><mxCell id="bcEEdu-v89f3usAvmzzI-263" value="PK" style="shape=partialRectangle;connectable=0;fillColor=none;top=0;left=0;bottom=0;right=0;fontStyle=1;overflow=hidden;" parent="bcEEdu-v89f3usAvmzzI-262" vertex="1"><mxGeometry width="30" height="30" as="geometry"><mxRectangle width="30" height="30" as="alternateBounds"/></mxGeometry></mxCell><mxCell id="bcEEdu-v89f3usAvmzzI-264" value="chapter_id" style="shape=partialRectangle;connectable=0;fillColor=none;top=0;left=0;bottom=0;right=0;align=left;spacingLeft=6;fontStyle=5;overflow=hidden;" parent="bcEEdu-v89f3usAvmzzI-262" vertex="1"><mxGeometry x="30" width="150" height="30" as="geometry"><mxRectangle width="150" height="30" as="alternateBounds"/></mxGeometry></mxCell><mxCell id="bcEEdu-v89f3usAvmzzI-265" value="" style="shape=tableRow;horizontal=0;startSize=0;swimlaneHead=0;swimlaneBody=0;fillColor=none;collapsible=0;dropTarget=0;points=[[0,0.5],[1,0.5]];portConstraint=eastwest;top=0;left=0;right=0;bottom=0;" parent="bcEEdu-v89f3usAvmzzI-261" vertex="1"><mxGeometry y="60" width="180" height="30" as="geometry"/></mxCell><mxCell id="bcEEdu-v89f3usAvmzzI-266" value="" style="shape=partialRectangle;connectable=0;fillColor=none;top=0;left=0;bottom=0;right=0;editable=1;overflow=hidden;" parent="bcEEdu-v89f3usAvmzzI-265" vertex="1"><mxGeometry width="30" height="30" as="geometry"><mxRectangle width="30" height="30" as="alternateBounds"/></mxGeometry></mxCell><mxCell id="bcEEdu-v89f3usAvmzzI-267" value="name" style="shape=partialRectangle;connectable=0;fillColor=none;top=0;left=0;bottom=0;right=0;align=left;spacingLeft=6;overflow=hidden;" parent="bcEEdu-v89f3usAvmzzI-265" vertex="1"><mxGeometry x="30" width="150" height="30" as="geometry"><mxRectangle width="150" height="30" as="alternateBounds"/></mxGeometry></mxCell><mxCell id="bcEEdu-v89f3usAvmzzI-268" value="" style="shape=tableRow;horizontal=0;startSize=0;swimlaneHead=0;swimlaneBody=0;fillColor=none;collapsible=0;dropTarget=0;points=[[0,0.5],[1,0.5]];portConstraint=eastwest;top=0;left=0;right=0;bottom=0;" parent="bcEEdu-v89f3usAvmzzI-261" vertex="1"><mxGeometry y="90" width="180" height="30" as="geometry"/></mxCell><mxCell id="bcEEdu-v89f3usAvmzzI-269" value="" style="shape=partialRectangle;connectable=0;fillColor=none;top=0;left=0;bottom=0;right=0;editable=1;overflow=hidden;" parent="bcEEdu-v89f3usAvmzzI-268" vertex="1"><mxGeometry width="30" height="30" as="geometry"><mxRectangle width="30" height="30" as="alternateBounds"/></mxGeometry></mxCell><mxCell id="bcEEdu-v89f3usAvmzzI-270" value="notes" style="shape=partialRectangle;connectable=0;fillColor=none;top=0;left=0;bottom=0;right=0;align=left;spacingLeft=6;overflow=hidden;" parent="bcEEdu-v89f3usAvmzzI-268" vertex="1"><mxGeometry x="30" width="150" height="30" as="geometry"><mxRectangle width="150" height="30" as="alternateBounds"/></mxGeometry></mxCell><mxCell id="bcEEdu-v89f3usAvmzzI-274" value="" style="shape=tableRow;horizontal=0;startSize=0;swimlaneHead=0;swimlaneBody=0;fillColor=none;collapsible=0;dropTarget=0;points=[[0,0.5],[1,0.5]];portConstraint=eastwest;top=0;left=0;right=0;bottom=0;" parent="bcEEdu-v89f3usAvmzzI-261" vertex="1"><mxGeometry y="120" width="180" height="30" as="geometry"/></mxCell><mxCell id="bcEEdu-v89f3usAvmzzI-275" value="FK" style="shape=partialRectangle;connectable=0;fillColor=none;top=0;left=0;bottom=0;right=0;editable=1;overflow=hidden;" parent="bcEEdu-v89f3usAvmzzI-274" vertex="1"><mxGeometry width="30" height="30" as="geometry"><mxRectangle width="30" height="30" as="alternateBounds"/></mxGeometry></mxCell><mxCell id="bcEEdu-v89f3usAvmzzI-276" value="post_id" style="shape=partialRectangle;connectable=0;fillColor=none;top=0;left=0;bottom=0;right=0;align=left;spacingLeft=6;overflow=hidden;" parent="bcEEdu-v89f3usAvmzzI-274" vertex="1"><mxGeometry x="30" width="150" height="30" as="geometry"><mxRectangle width="150" height="30" as="alternateBounds"/></mxGeometry></mxCell><mxCell id="bcEEdu-v89f3usAvmzzI-277" value="" style="shape=tableRow;horizontal=0;startSize=0;swimlaneHead=0;swimlaneBody=0;fillColor=none;collapsible=0;dropTarget=0;points=[[0,0.5],[1,0.5]];portConstraint=eastwest;top=0;left=0;right=0;bottom=0;" parent="bcEEdu-v89f3usAvmzzI-261" vertex="1"><mxGeometry y="150" width="180" height="30" as="geometry"/></mxCell><mxCell id="bcEEdu-v89f3usAvmzzI-278" value="" style="shape=partialRectangle;connectable=0;fillColor=none;top=0;left=0;bottom=0;right=0;editable=1;overflow=hidden;" parent="bcEEdu-v89f3usAvmzzI-277" vertex="1"><mxGeometry width="30" height="30" as="geometry"><mxRectangle width="30" height="30" as="alternateBounds"/></mxGeometry></mxCell><mxCell id="bcEEdu-v89f3usAvmzzI-279" value="text" style="shape=partialRectangle;connectable=0;fillColor=none;top=0;left=0;bottom=0;right=0;align=left;spacingLeft=6;overflow=hidden;" parent="bcEEdu-v89f3usAvmzzI-277" vertex="1"><mxGeometry x="30" width="150" height="30" as="geometry"><mxRectangle width="150" height="30" as="alternateBounds"/></mxGeometry></mxCell><mxCell id="94" value="" style="shape=tableRow;horizontal=0;startSize=0;swimlaneHead=0;swimlaneBody=0;fillColor=none;collapsible=0;dropTarget=0;points=[[0,0.5],[1,0.5]];portConstraint=eastwest;top=0;left=0;right=0;bottom=0;" parent="bcEEdu-v89f3usAvmzzI-261" vertex="1"><mxGeometry y="180" width="180" height="30" as="geometry"/></mxCell><mxCell id="95" value="" style="shape=partialRectangle;connectable=0;fillColor=none;top=0;left=0;bottom=0;right=0;editable=1;overflow=hidden;" parent="94" vertex="1"><mxGeometry width="30" height="30" as="geometry"><mxRectangle width="30" height="30" as="alternateBounds"/></mxGeometry></mxCell><mxCell id="96" value="date" style="shape=partialRectangle;connectable=0;fillColor=none;top=0;left=0;bottom=0;right=0;align=left;spacingLeft=6;overflow=hidden;" parent="94" vertex="1"><mxGeometry x="30" width="150" height="30" as="geometry"><mxRectangle width="150" height="30" as="alternateBounds"/></mxGeometry></mxCell><mxCell id="bcEEdu-v89f3usAvmzzI-271" value="" style="shape=tableRow;horizontal=0;startSize=0;swimlaneHead=0;swimlaneBody=0;fillColor=none;collapsible=0;dropTarget=0;points=[[0,0.5],[1,0.5]];portConstraint=eastwest;top=0;left=0;right=0;bottom=0;" parent="bcEEdu-v89f3usAvmzzI-261" vertex="1"><mxGeometry y="210" width="180" height="30" as="geometry"/></mxCell><mxCell id="bcEEdu-v89f3usAvmzzI-272" value="" style="shape=partialRectangle;connectable=0;fillColor=none;top=0;left=0;bottom=0;right=0;editable=1;overflow=hidden;" parent="bcEEdu-v89f3usAvmzzI-271" vertex="1"><mxGeometry width="30" height="30" as="geometry"><mxRectangle width="30" height="30" as="alternateBounds"/></mxGeometry></mxCell><mxCell id="bcEEdu-v89f3usAvmzzI-273" value="number" style="shape=partialRectangle;connectable=0;fillColor=none;top=0;left=0;bottom=0;right=0;align=left;spacingLeft=6;overflow=hidden;" parent="bcEEdu-v89f3usAvmzzI-271" vertex="1"><mxGeometry x="30" width="150" height="30" as="geometry"><mxRectangle width="150" height="30" as="alternateBounds"/></mxGeometry></mxCell><mxCell id="bcEEdu-v89f3usAvmzzI-280" value="" style="edgeStyle=entityRelationEdgeStyle;fontSize=12;html=1;endArrow=ERoneToMany;rounded=0;entryX=0;entryY=0.5;entryDx=0;entryDy=0;exitX=1;exitY=0.5;exitDx=0;exitDy=0;" parent="1" source="bcEEdu-v89f3usAvmzzI-16" target="bcEEdu-v89f3usAvmzzI-262" edge="1"><mxGeometry width="100" height="100" relative="1" as="geometry"><mxPoint x="950" y="460" as="sourcePoint"/><mxPoint x="1050" y="360" as="targetPoint"/></mxGeometry></mxCell><mxCell id="bcEEdu-v89f3usAvmzzI-294" value="genre" style="shape=table;startSize=30;container=1;collapsible=1;childLayout=tableLayout;fixedRows=1;rowLines=0;fontStyle=1;align=center;resizeLast=1;" parent="1" vertex="1"><mxGeometry x="648" y="900" width="180" height="90" as="geometry"/></mxCell><mxCell id="bcEEdu-v89f3usAvmzzI-295" value="" style="shape=tableRow;horizontal=0;startSize=0;swimlaneHead=0;swimlaneBody=0;fillColor=none;collapsible=0;dropTarget=0;points=[[0,0.5],[1,0.5]];portConstraint=eastwest;top=0;left=0;right=0;bottom=1;" parent="bcEEdu-v89f3usAvmzzI-294" vertex="1"><mxGeometry y="30" width="180" height="30" as="geometry"/></mxCell><mxCell id="bcEEdu-v89f3usAvmzzI-296" value="PK" style="shape=partialRectangle;connectable=0;fillColor=none;top=0;left=0;bottom=0;right=0;fontStyle=1;overflow=hidden;" parent="bcEEdu-v89f3usAvmzzI-295" vertex="1"><mxGeometry width="30" height="30" as="geometry"><mxRectangle width="30" height="30" as="alternateBounds"/></mxGeometry></mxCell><mxCell id="bcEEdu-v89f3usAvmzzI-297" value="genre_id" style="shape=partialRectangle;connectable=0;fillColor=none;top=0;left=0;bottom=0;right=0;align=left;spacingLeft=6;fontStyle=5;overflow=hidden;" parent="bcEEdu-v89f3usAvmzzI-295" vertex="1"><mxGeometry x="30" width="150" height="30" as="geometry"><mxRectangle width="150" height="30" as="alternateBounds"/></mxGeometry></mxCell><mxCell id="bcEEdu-v89f3usAvmzzI-298" value="" style="shape=tableRow;horizontal=0;startSize=0;swimlaneHead=0;swimlaneBody=0;fillColor=none;collapsible=0;dropTarget=0;points=[[0,0.5],[1,0.5]];portConstraint=eastwest;top=0;left=0;right=0;bottom=0;" parent="bcEEdu-v89f3usAvmzzI-294" vertex="1"><mxGeometry y="60" width="180" height="30" as="geometry"/></mxCell><mxCell id="bcEEdu-v89f3usAvmzzI-299" value="" style="shape=partialRectangle;connectable=0;fillColor=none;top=0;left=0;bottom=0;right=0;editable=1;overflow=hidden;" parent="bcEEdu-v89f3usAvmzzI-298" vertex="1"><mxGeometry width="30" height="30" as="geometry"><mxRectangle width="30" height="30" as="alternateBounds"/></mxGeometry></mxCell><mxCell id="bcEEdu-v89f3usAvmzzI-300" value="name" style="shape=partialRectangle;connectable=0;fillColor=none;top=0;left=0;bottom=0;right=0;align=left;spacingLeft=6;overflow=hidden;" parent="bcEEdu-v89f3usAvmzzI-298" vertex="1"><mxGeometry x="30" width="150" height="30" as="geometry"><mxRectangle width="150" height="30" as="alternateBounds"/></mxGeometry></mxCell><mxCell id="bcEEdu-v89f3usAvmzzI-325" value="status" style="shape=table;startSize=30;container=1;collapsible=1;childLayout=tableLayout;fixedRows=1;rowLines=0;fontStyle=1;align=center;resizeLast=1;" parent="1" vertex="1"><mxGeometry x="410" y="870" width="180" height="90" as="geometry"/></mxCell><mxCell id="bcEEdu-v89f3usAvmzzI-326" value="" style="shape=tableRow;horizontal=0;startSize=0;swimlaneHead=0;swimlaneBody=0;fillColor=none;collapsible=0;dropTarget=0;points=[[0,0.5],[1,0.5]];portConstraint=eastwest;top=0;left=0;right=0;bottom=1;" parent="bcEEdu-v89f3usAvmzzI-325" vertex="1"><mxGeometry y="30" width="180" height="30" as="geometry"/></mxCell><mxCell id="bcEEdu-v89f3usAvmzzI-327" value="PK" style="shape=partialRectangle;connectable=0;fillColor=none;top=0;left=0;bottom=0;right=0;fontStyle=1;overflow=hidden;" parent="bcEEdu-v89f3usAvmzzI-326" vertex="1"><mxGeometry width="30" height="30" as="geometry"><mxRectangle width="30" height="30" as="alternateBounds"/></mxGeometry></mxCell><mxCell id="bcEEdu-v89f3usAvmzzI-328" value="status_id" style="shape=partialRectangle;connectable=0;fillColor=none;top=0;left=0;bottom=0;right=0;align=left;spacingLeft=6;fontStyle=5;overflow=hidden;" parent="bcEEdu-v89f3usAvmzzI-326" vertex="1"><mxGeometry x="30" width="150" height="30" as="geometry"><mxRectangle width="150" height="30" as="alternateBounds"/></mxGeometry></mxCell><mxCell id="bcEEdu-v89f3usAvmzzI-329" value="" style="shape=tableRow;horizontal=0;startSize=0;swimlaneHead=0;swimlaneBody=0;fillColor=none;collapsible=0;dropTarget=0;points=[[0,0.5],[1,0.5]];portConstraint=eastwest;top=0;left=0;right=0;bottom=0;" parent="bcEEdu-v89f3usAvmzzI-325" vertex="1"><mxGeometry y="60" width="180" height="30" as="geometry"/></mxCell><mxCell id="bcEEdu-v89f3usAvmzzI-330" value="" style="shape=partialRectangle;connectable=0;fillColor=none;top=0;left=0;bottom=0;right=0;editable=1;overflow=hidden;" parent="bcEEdu-v89f3usAvmzzI-329" vertex="1"><mxGeometry width="30" height="30" as="geometry"><mxRectangle width="30" height="30" as="alternateBounds"/></mxGeometry></mxCell><mxCell id="bcEEdu-v89f3usAvmzzI-331" value="name" style="shape=partialRectangle;connectable=0;fillColor=none;top=0;left=0;bottom=0;right=0;align=left;spacingLeft=6;overflow=hidden;" parent="bcEEdu-v89f3usAvmzzI-329" vertex="1"><mxGeometry x="30" width="150" height="30" as="geometry"><mxRectangle width="150" height="30" as="alternateBounds"/></mxGeometry></mxCell><mxCell id="bcEEdu-v89f3usAvmzzI-338" value="" style="edgeStyle=entityRelationEdgeStyle;fontSize=12;html=1;endArrow=ERoneToMany;rounded=0;entryX=0;entryY=0.5;entryDx=0;entryDy=0;exitX=1;exitY=0.5;exitDx=0;exitDy=0;" parent="1" source="bcEEdu-v89f3usAvmzzI-326" target="bcEEdu-v89f3usAvmzzI-124" edge="1"><mxGeometry x="-1" y="308" width="100" height="100" relative="1" as="geometry"><mxPoint x="547" y="830" as="sourcePoint"/><mxPoint x="647" y="730" as="targetPoint"/><mxPoint x="-300" y="238" as="offset"/></mxGeometry></mxCell><mxCell id="2" value="age" style="shape=table;startSize=30;container=1;collapsible=1;childLayout=tableLayout;fixedRows=1;rowLines=0;fontStyle=1;align=center;resizeLast=1;" parent="1" vertex="1"><mxGeometry x="1590" y="580" width="180" height="120" as="geometry"/></mxCell><mxCell id="3" value="" style="shape=tableRow;horizontal=0;startSize=0;swimlaneHead=0;swimlaneBody=0;fillColor=none;collapsible=0;dropTarget=0;points=[[0,0.5],[1,0.5]];portConstraint=eastwest;top=0;left=0;right=0;bottom=1;" parent="2" vertex="1"><mxGeometry y="30" width="180" height="30" as="geometry"/></mxCell><mxCell id="4" value="PK" style="shape=partialRectangle;connectable=0;fillColor=none;top=0;left=0;bottom=0;right=0;fontStyle=1;overflow=hidden;" parent="3" vertex="1"><mxGeometry width="30" height="30" as="geometry"><mxRectangle width="30" height="30" as="alternateBounds"/></mxGeometry></mxCell><mxCell id="5" value="age_id" style="shape=partialRectangle;connectable=0;fillColor=none;top=0;left=0;bottom=0;right=0;align=left;spacingLeft=6;fontStyle=5;overflow=hidden;" parent="3" vertex="1"><mxGeometry x="30" width="150" height="30" as="geometry"><mxRectangle width="150" height="30" as="alternateBounds"/></mxGeometry></mxCell><mxCell id="6" value="" style="shape=tableRow;horizontal=0;startSize=0;swimlaneHead=0;swimlaneBody=0;fillColor=none;collapsible=0;dropTarget=0;points=[[0,0.5],[1,0.5]];portConstraint=eastwest;top=0;left=0;right=0;bottom=0;" parent="2" vertex="1"><mxGeometry y="60" width="180" height="30" as="geometry"/></mxCell><mxCell id="7" value="" style="shape=partialRectangle;connectable=0;fillColor=none;top=0;left=0;bottom=0;right=0;editable=1;overflow=hidden;" parent="6" vertex="1"><mxGeometry width="30" height="30" as="geometry"><mxRectangle width="30" height="30" as="alternateBounds"/></mxGeometry></mxCell><mxCell id="8" value="name" style="shape=partialRectangle;connectable=0;fillColor=none;top=0;left=0;bottom=0;right=0;align=left;spacingLeft=6;overflow=hidden;" parent="6" vertex="1"><mxGeometry x="30" width="150" height="30" as="geometry"><mxRectangle width="150" height="30" as="alternateBounds"/></mxGeometry></mxCell><mxCell id="12" value="" style="shape=tableRow;horizontal=0;startSize=0;swimlaneHead=0;swimlaneBody=0;fillColor=none;collapsible=0;dropTarget=0;points=[[0,0.5],[1,0.5]];portConstraint=eastwest;top=0;left=0;right=0;bottom=0;" parent="2" vertex="1"><mxGeometry y="90" width="180" height="30" as="geometry"/></mxCell><mxCell id="13" value="" style="shape=partialRectangle;connectable=0;fillColor=none;top=0;left=0;bottom=0;right=0;editable=1;overflow=hidden;" parent="12" vertex="1"><mxGeometry width="30" height="30" as="geometry"><mxRectangle width="30" height="30" as="alternateBounds"/></mxGeometry></mxCell><mxCell id="14" value="color" style="shape=partialRectangle;connectable=0;fillColor=none;top=0;left=0;bottom=0;right=0;align=left;spacingLeft=6;overflow=hidden;" parent="12" vertex="1"><mxGeometry x="30" width="150" height="30" as="geometry"><mxRectangle width="150" height="30" as="alternateBounds"/></mxGeometry></mxCell><mxCell id="16" value="" style="edgeStyle=entityRelationEdgeStyle;fontSize=12;html=1;endArrow=ERoneToMany;rounded=0;entryX=1;entryY=0.5;entryDx=0;entryDy=0;exitX=1;exitY=0.5;exitDx=0;exitDy=0;" parent="1" source="bcEEdu-v89f3usAvmzzI-195" target="3" edge="1"><mxGeometry width="100" height="100" relative="1" as="geometry"><mxPoint x="1981.9999999999998" y="790" as="sourcePoint"/><mxPoint x="1859.9999999999998" y="625" as="targetPoint"/></mxGeometry></mxCell><mxCell id="39" value="likes" style="shape=table;startSize=30;container=1;collapsible=1;childLayout=tableLayout;fixedRows=1;rowLines=0;fontStyle=1;align=center;resizeLast=1;" parent="1" vertex="1"><mxGeometry x="696" y="310" width="132" height="90" as="geometry"/></mxCell><mxCell id="40" value="" style="shape=tableRow;horizontal=0;startSize=0;swimlaneHead=0;swimlaneBody=0;fillColor=none;collapsible=0;dropTarget=0;points=[[0,0.5],[1,0.5]];portConstraint=eastwest;top=0;left=0;right=0;bottom=0;" parent="39" vertex="1"><mxGeometry y="30" width="132" height="30" as="geometry"/></mxCell><mxCell id="41" value="PK,FK1" style="shape=partialRectangle;connectable=0;fillColor=none;top=0;left=0;bottom=0;right=0;fontStyle=1;overflow=hidden;" parent="40" vertex="1"><mxGeometry width="60" height="30" as="geometry"><mxRectangle width="60" height="30" as="alternateBounds"/></mxGeometry></mxCell><mxCell id="42" value="post_id" style="shape=partialRectangle;connectable=0;fillColor=none;top=0;left=0;bottom=0;right=0;align=left;spacingLeft=6;fontStyle=5;overflow=hidden;" parent="40" vertex="1"><mxGeometry x="60" width="72" height="30" as="geometry"><mxRectangle width="72" height="30" as="alternateBounds"/></mxGeometry></mxCell><mxCell id="43" value="" style="shape=tableRow;horizontal=0;startSize=0;swimlaneHead=0;swimlaneBody=0;fillColor=none;collapsible=0;dropTarget=0;points=[[0,0.5],[1,0.5]];portConstraint=eastwest;top=0;left=0;right=0;bottom=1;" parent="39" vertex="1"><mxGeometry y="60" width="132" height="30" as="geometry"/></mxCell><mxCell id="44" value="PK,FK2" style="shape=partialRectangle;connectable=0;fillColor=none;top=0;left=0;bottom=0;right=0;fontStyle=1;overflow=hidden;" parent="43" vertex="1"><mxGeometry width="60" height="30" as="geometry"><mxRectangle width="60" height="30" as="alternateBounds"/></mxGeometry></mxCell><mxCell id="45" value="user_id" style="shape=partialRectangle;connectable=0;fillColor=none;top=0;left=0;bottom=0;right=0;align=left;spacingLeft=6;fontStyle=5;overflow=hidden;" parent="43" vertex="1"><mxGeometry x="60" width="72" height="30" as="geometry"><mxRectangle width="72" height="30" as="alternateBounds"/></mxGeometry></mxCell><mxCell id="52" value="" style="edgeStyle=entityRelationEdgeStyle;fontSize=12;html=1;endArrow=ERmany;startArrow=ERmany;rounded=0;exitX=1;exitY=0.5;exitDx=0;exitDy=0;entryX=1;entryY=0.5;entryDx=0;entryDy=0;" parent="1" source="bcEEdu-v89f3usAvmzzI-16" target="40" edge="1"><mxGeometry width="100" height="100" relative="1" as="geometry"><mxPoint x="827" y="470" as="sourcePoint"/><mxPoint x="927" y="370" as="targetPoint"/></mxGeometry></mxCell><mxCell id="53" value="read_chapter" style="shape=table;startSize=30;container=1;collapsible=1;childLayout=tableLayout;fixedRows=1;rowLines=0;fontStyle=1;align=center;resizeLast=1;" parent="1" vertex="1"><mxGeometry x="906" y="10" width="144" height="90" as="geometry"/></mxCell><mxCell id="54" value="" style="shape=tableRow;horizontal=0;startSize=0;swimlaneHead=0;swimlaneBody=0;fillColor=none;collapsible=0;dropTarget=0;points=[[0,0.5],[1,0.5]];portConstraint=eastwest;top=0;left=0;right=0;bottom=0;" parent="53" vertex="1"><mxGeometry y="30" width="144" height="30" as="geometry"/></mxCell><mxCell id="55" value="PK,FK1" style="shape=partialRectangle;connectable=0;fillColor=none;top=0;left=0;bottom=0;right=0;fontStyle=1;overflow=hidden;" parent="54" vertex="1"><mxGeometry width="60" height="30" as="geometry"><mxRectangle width="60" height="30" as="alternateBounds"/></mxGeometry></mxCell><mxCell id="56" value="chapter_id" style="shape=partialRectangle;connectable=0;fillColor=none;top=0;left=0;bottom=0;right=0;align=left;spacingLeft=6;fontStyle=5;overflow=hidden;" parent="54" vertex="1"><mxGeometry x="60" width="84" height="30" as="geometry"><mxRectangle width="84" height="30" as="alternateBounds"/></mxGeometry></mxCell><mxCell id="57" value="" style="shape=tableRow;horizontal=0;startSize=0;swimlaneHead=0;swimlaneBody=0;fillColor=none;collapsible=0;dropTarget=0;points=[[0,0.5],[1,0.5]];portConstraint=eastwest;top=0;left=0;right=0;bottom=1;" parent="53" vertex="1"><mxGeometry y="60" width="144" height="30" as="geometry"/></mxCell><mxCell id="58" value="PK,FK2" style="shape=partialRectangle;connectable=0;fillColor=none;top=0;left=0;bottom=0;right=0;fontStyle=1;overflow=hidden;" parent="57" vertex="1"><mxGeometry width="60" height="30" as="geometry"><mxRectangle width="60" height="30" as="alternateBounds"/></mxGeometry></mxCell><mxCell id="59" value="user_id" style="shape=partialRectangle;connectable=0;fillColor=none;top=0;left=0;bottom=0;right=0;align=left;spacingLeft=6;fontStyle=5;overflow=hidden;" parent="57" vertex="1"><mxGeometry x="60" width="84" height="30" as="geometry"><mxRectangle width="84" height="30" as="alternateBounds"/></mxGeometry></mxCell><mxCell id="66" value="" style="edgeStyle=entityRelationEdgeStyle;fontSize=12;html=1;endArrow=ERmany;startArrow=ERmany;rounded=0;entryX=0;entryY=0.5;entryDx=0;entryDy=0;exitX=1;exitY=0.5;exitDx=0;exitDy=0;" parent="1" source="54" target="bcEEdu-v89f3usAvmzzI-262" edge="1"><mxGeometry width="100" height="100" relative="1" as="geometry"><mxPoint x="900" y="150" as="sourcePoint"/><mxPoint x="1070" y="60" as="targetPoint"/></mxGeometry></mxCell><mxCell id="67" value="read_post" style="shape=table;startSize=30;container=1;collapsible=1;childLayout=tableLayout;fixedRows=1;rowLines=0;fontStyle=1;align=center;resizeLast=1;" parent="1" vertex="1"><mxGeometry x="730" y="10" width="144" height="90" as="geometry"/></mxCell><mxCell id="68" value="" style="shape=tableRow;horizontal=0;startSize=0;swimlaneHead=0;swimlaneBody=0;fillColor=none;collapsible=0;dropTarget=0;points=[[0,0.5],[1,0.5]];portConstraint=eastwest;top=0;left=0;right=0;bottom=0;" parent="67" vertex="1"><mxGeometry y="30" width="144" height="30" as="geometry"/></mxCell><mxCell id="69" value="PK,FK1" style="shape=partialRectangle;connectable=0;fillColor=none;top=0;left=0;bottom=0;right=0;fontStyle=1;overflow=hidden;" parent="68" vertex="1"><mxGeometry width="60" height="30" as="geometry"><mxRectangle width="60" height="30" as="alternateBounds"/></mxGeometry></mxCell><mxCell id="70" value="post_id" style="shape=partialRectangle;connectable=0;fillColor=none;top=0;left=0;bottom=0;right=0;align=left;spacingLeft=6;fontStyle=5;overflow=hidden;" parent="68" vertex="1"><mxGeometry x="60" width="84" height="30" as="geometry"><mxRectangle width="84" height="30" as="alternateBounds"/></mxGeometry></mxCell><mxCell id="71" value="" style="shape=tableRow;horizontal=0;startSize=0;swimlaneHead=0;swimlaneBody=0;fillColor=none;collapsible=0;dropTarget=0;points=[[0,0.5],[1,0.5]];portConstraint=eastwest;top=0;left=0;right=0;bottom=1;" parent="67" vertex="1"><mxGeometry y="60" width="144" height="30" as="geometry"/></mxCell><mxCell id="72" value="PK,FK2" style="shape=partialRectangle;connectable=0;fillColor=none;top=0;left=0;bottom=0;right=0;fontStyle=1;overflow=hidden;" parent="71" vertex="1"><mxGeometry width="60" height="30" as="geometry"><mxRectangle width="60" height="30" as="alternateBounds"/></mxGeometry></mxCell><mxCell id="73" value="user_id" style="shape=partialRectangle;connectable=0;fillColor=none;top=0;left=0;bottom=0;right=0;align=left;spacingLeft=6;fontStyle=5;overflow=hidden;" parent="71" vertex="1"><mxGeometry x="60" width="84" height="30" as="geometry"><mxRectangle width="84" height="30" as="alternateBounds"/></mxGeometry></mxCell><mxCell id="77" value="" style="edgeStyle=entityRelationEdgeStyle;fontSize=12;html=1;endArrow=ERmany;startArrow=ERmany;rounded=0;exitX=0;exitY=0.5;exitDx=0;exitDy=0;entryX=0;entryY=0.5;entryDx=0;entryDy=0;" parent="1" source="40" target="68" edge="1"><mxGeometry width="100" height="100" relative="1" as="geometry"><mxPoint x="860" y="350" as="sourcePoint"/><mxPoint x="960" y="250" as="targetPoint"/></mxGeometry></mxCell><mxCell id="78" value="post_genre" style="shape=table;startSize=30;container=1;collapsible=1;childLayout=tableLayout;fixedRows=1;rowLines=0;fontStyle=1;align=center;resizeLast=1;" parent="1" vertex="1"><mxGeometry x="888" y="800" width="172" height="90" as="geometry"/></mxCell><mxCell id="79" value="" style="shape=tableRow;horizontal=0;startSize=0;swimlaneHead=0;swimlaneBody=0;fillColor=none;collapsible=0;dropTarget=0;points=[[0,0.5],[1,0.5]];portConstraint=eastwest;top=0;left=0;right=0;bottom=0;" parent="78" vertex="1"><mxGeometry y="30" width="172" height="30" as="geometry"/></mxCell><mxCell id="80" value="PK,FK1" style="shape=partialRectangle;connectable=0;fillColor=none;top=0;left=0;bottom=0;right=0;fontStyle=1;overflow=hidden;" parent="79" vertex="1"><mxGeometry width="60" height="30" as="geometry"><mxRectangle width="60" height="30" as="alternateBounds"/></mxGeometry></mxCell><mxCell id="81" value="post_id" style="shape=partialRectangle;connectable=0;fillColor=none;top=0;left=0;bottom=0;right=0;align=left;spacingLeft=6;fontStyle=5;overflow=hidden;" parent="79" vertex="1"><mxGeometry x="60" width="112" height="30" as="geometry"><mxRectangle width="112" height="30" as="alternateBounds"/></mxGeometry></mxCell><mxCell id="82" value="" style="shape=tableRow;horizontal=0;startSize=0;swimlaneHead=0;swimlaneBody=0;fillColor=none;collapsible=0;dropTarget=0;points=[[0,0.5],[1,0.5]];portConstraint=eastwest;top=0;left=0;right=0;bottom=1;" parent="78" vertex="1"><mxGeometry y="60" width="172" height="30" as="geometry"/></mxCell><mxCell id="83" value="PK,FK2" style="shape=partialRectangle;connectable=0;fillColor=none;top=0;left=0;bottom=0;right=0;fontStyle=1;overflow=hidden;" parent="82" vertex="1"><mxGeometry width="60" height="30" as="geometry"><mxRectangle width="60" height="30" as="alternateBounds"/></mxGeometry></mxCell><mxCell id="84" value="genre_id" style="shape=partialRectangle;connectable=0;fillColor=none;top=0;left=0;bottom=0;right=0;align=left;spacingLeft=6;fontStyle=5;overflow=hidden;" parent="82" vertex="1"><mxGeometry x="60" width="112" height="30" as="geometry"><mxRectangle width="112" height="30" as="alternateBounds"/></mxGeometry></mxCell><mxCell id="92" value="" style="edgeStyle=entityRelationEdgeStyle;fontSize=12;html=1;endArrow=ERmany;startArrow=ERmany;rounded=0;entryX=0;entryY=0.5;entryDx=0;entryDy=0;exitX=1;exitY=0.5;exitDx=0;exitDy=0;" parent="1" source="bcEEdu-v89f3usAvmzzI-16" target="79" edge="1"><mxGeometry width="100" height="100" relative="1" as="geometry"><mxPoint x="670" y="900" as="sourcePoint"/><mxPoint x="770" y="800" as="targetPoint"/></mxGeometry></mxCell><mxCell id="93" value="" style="edgeStyle=entityRelationEdgeStyle;fontSize=12;html=1;endArrow=ERmany;startArrow=ERmany;rounded=0;entryX=0;entryY=0.5;entryDx=0;entryDy=0;exitX=1;exitY=0.5;exitDx=0;exitDy=0;" parent="1" source="bcEEdu-v89f3usAvmzzI-295" target="82" edge="1"><mxGeometry width="100" height="100" relative="1" as="geometry"><mxPoint x="814" y="777.5" as="sourcePoint"/><mxPoint x="874" y="1052.5" as="targetPoint"/></mxGeometry></mxCell></root></mxGraphModel></diagram></mxfile>